<svg xmlns="http://www.w3.org/2000/svg" viewBox="0 0 62.6 50.1"><title>Laptop</title><g id="Layer_2" data-name="Layer 2"><g id="Layer_1-2" data-name="Layer 1"><path d="M25,25.6a1.57,1.57,0,0,0,2.2,0l1.1-1.1a1.57,1.57,0,0,0,0-2.2l-3.5-3.5,3.5-3.5a1.57,1.57,0,0,0,0-2.2L27.2,12A1.57,1.57,0,0,0,25,12l-5.7,5.7a1.57,1.57,0,0,0,0,2.2Zm9.3-1.2,1.1,1.1a1.57,1.57,0,0,0,2.2,0l5.7-5.7a1.57,1.57,0,0,0,0-2.2l-5.7-5.7a1.57,1.57,0,0,0-2.2,0L34.3,13a1.57,1.57,0,0,0,0,2.2l3.5,3.5-3.5,3.5A1.57,1.57,0,0,0,34.3,24.4ZM61,40.6H37.3a3.07,3.07,0,0,1-3.2,3.1H28.2A3.35,3.35,0,0,1,25,40.6H1.6A1.58,1.58,0,0,0,0,42.2v1.6a6.34,6.34,0,0,0,6.3,6.3h50a6.34,6.34,0,0,0,6.3-6.3V42.2A1.64,1.64,0,0,0,61,40.6ZM56.3,4.7A4.69,4.69,0,0,0,51.6,0H11A4.69,4.69,0,0,0,6.3,4.7V37.5h50V4.7ZM50.1,31.3H12.6V6.3H50.1Z"/></g></g></svg>